<svg width="160" height="28" viewBox="0 0 160 28" fill="none" xmlns="http://www.w3.org/2000/svg">
<path d="M6.66769 0.661213C2.52957 1.77266 0.233582 5.4323 1.30148 9.14615C1.96892 11.5859 4.02463 13.2395 9.31074 15.6793C13.2353 17.4956 13.876 17.8751 15.1308 19.0407C17.6404 21.3992 17.2933 24.1913 14.2765 26.116C13.0484 26.8751 12.7547 26.9293 10.5121 26.9293C8.32293 26.9293 7.97587 26.848 6.98806 26.1974C4.95905 24.8419 3.86445 21.8871 4.3984 19.2034C4.71877 17.6311 4.61198 17.5769 3.01013 18.5257C0.0466996 20.2877 0.126792 24.7606 3.19701 26.4956C5.54639 27.851 11.1529 28.366 13.9027 27.4986C16.7327 26.6311 19.0286 24.598 19.8563 22.1853C20.6839 19.7998 20.23 18.2275 18.0141 16.0588C16.6526 14.7305 15.4779 13.9986 11.9538 12.1552C6.77448 9.49856 5.54639 8.68531 4.79886 7.43832C3.01013 4.51061 5.97355 1.04073 10.2719 1.04073C11.6067 1.04073 13.7692 2.12507 14.6503 3.26362C15.4512 4.32085 16.2254 6.54374 16.2521 7.87206C16.2521 8.44133 16.3589 8.90218 16.5191 8.90218C16.6526 8.90218 17.1865 8.52266 17.6938 8.08892C20.0432 5.97447 19.349 3.01965 16.1186 1.36603C13.876 0.227478 9.44423 -0.097823 6.66769 0.661213Z" fill="#FF2200"/>
<path d="M88.7628 0.878022C90.5249 1.66417 90.4715 1.31176 90.4715 13.9985C90.4715 26.7395 90.4715 26.8208 88.7895 27.3087C88.2022 27.4714 90.5516 27.5527 96.078 27.5798C103.713 27.6069 104.301 27.5527 105.422 27.0377C107.878 25.9262 109.694 23.1883 109.694 20.5859C109.694 17.9834 108.172 15.3268 106.063 14.2425L104.888 13.6461L106.17 12.6973C110.121 9.74248 109.667 3.58887 105.315 1.23043C104.274 0.661155 103.9 0.634046 96.078 0.579829C88.9497 0.498504 88.042 0.552721 88.7628 0.878022ZM102.165 2.20634C102.779 2.61296 103.607 3.45332 104.007 4.07682C104.648 5.05272 104.755 5.48646 104.755 7.14007C104.755 9.71537 103.82 11.369 101.711 12.4804C100.403 13.1853 100.056 13.2395 97.3861 13.2395H94.4761V7.2485V1.25754L97.7599 1.36597C100.83 1.4473 101.124 1.50152 102.165 2.20634ZM101.845 14.5678C105.289 16.1672 106.65 20.4232 104.755 23.7033C103.34 26.1431 101.257 27.0648 97.0925 27.0648H94.4761V20.5587V14.0527H97.6264C100.083 14.0527 100.99 14.1612 101.845 14.5678Z" fill="#FF2200"/>
<path d="M139.248 0.932523C139.728 1.12228 140.236 1.52891 140.396 1.8271C140.556 2.17951 140.663 6.51686 140.663 14.2699C140.663 27.3361 140.743 26.6042 139.061 27.309C138.607 27.4988 140.796 27.5801 146.296 27.5801C152.703 27.6072 154.412 27.5259 155.373 27.2006C158.123 26.2518 159.992 23.4867 159.965 20.4506C159.938 19.556 159.752 18.3361 159.511 17.7669C158.951 16.4385 157.162 14.4867 156.147 14.053C155.694 13.8632 155.346 13.6464 155.346 13.5379C155.346 13.4566 155.827 13.0771 156.414 12.6976C158.123 11.6404 159.351 9.30903 159.351 7.11325C159.351 4.48373 157.295 1.66445 154.786 0.932523C152.783 0.309029 137.886 0.309029 139.248 0.932523ZM151.742 1.8271C155.427 3.53493 156.414 7.98072 153.798 11.0711C152.33 12.8331 151.208 13.2398 147.818 13.2398H144.934V7.2759V1.31204H147.818C150.007 1.31204 150.915 1.44758 151.742 1.8271ZM152.97 15.0018C154.839 16.3301 155.694 17.8211 155.827 19.9084C155.961 22.0229 155.453 23.5952 154.225 24.8693C152.65 26.4958 151.555 26.8753 148.085 27.0108L144.934 27.1193V20.559V13.9988L148.378 14.1072C151.716 14.1885 151.876 14.2157 152.97 15.0018Z" fill="#FF2200"/>
<path d="M77.4965 1.71863C77.0961 2.34212 77.1228 2.50477 77.7635 4.48369C78.1373 5.62224 78.4043 6.59815 78.3509 6.65236C78.2975 6.70658 77.63 5.94755 76.8825 4.97164C75.8413 3.64333 75.3607 3.20959 74.8535 3.20959C73.5186 3.20959 72.6376 4.91742 73.4652 5.97465C73.6254 6.21863 74.72 6.62526 75.868 6.86923C77.016 7.14032 77.9237 7.38429 77.8703 7.4114C77.8169 7.46562 76.8825 7.62827 75.7879 7.79092C74.6933 7.98068 73.6254 8.27887 73.4118 8.49574C72.9046 9.0108 72.958 10.1765 73.5186 10.8C74.3996 11.7759 75.2539 11.5048 76.9359 9.6614L78.4577 7.95357L77.897 9.44453C76.8291 12.2638 76.8024 12.3722 77.1228 12.9415C77.6834 14.0259 79.8192 13.9174 80.2464 12.806C80.3265 12.562 80.1396 11.5048 79.8192 10.4747C79.4722 9.44453 79.2586 8.52285 79.3387 8.46863C79.4188 8.3873 80.0328 9.06502 80.7269 9.95959C81.6347 11.1524 82.1953 11.6132 82.6225 11.6132C84.1442 11.6132 84.9452 9.30899 83.7438 8.52285C83.3967 8.33309 82.3021 8.00779 81.3143 7.81803C80.3265 7.62827 79.5522 7.43851 79.6056 7.38429C79.659 7.33008 80.6202 7.14032 81.7681 6.97767C83.4501 6.73369 83.9039 6.54393 84.2243 6.02887C84.9452 4.94453 84.0908 3.48068 82.7827 3.48068C82.2487 3.48068 81.6881 3.8873 80.5134 5.1614L78.9916 6.86923L79.5522 5.37827C80.7002 2.42345 80.7269 2.17947 80.193 1.58309C79.4722 0.796943 78.0572 0.851159 77.4965 1.71863Z" fill="#FF2200"/>
<path d="M59.822 8.46845C58.3269 8.9564 56.7518 10.0678 55.6038 11.4504L54.6961 12.5347V10.4474V8.36001H51.6259C49.757 8.36001 48.5556 8.46845 48.5556 8.6311C48.5556 8.76664 48.7959 8.90218 49.0629 8.90218C49.3566 8.90218 49.8371 9.22748 50.1308 9.607C50.638 10.2576 50.6914 10.6913 50.6914 13.8901V17.4684L48.9027 19.2576C43.6967 24.4082 38.1703 27.2817 33.8987 27.0106C32.3235 26.9022 32.1367 26.8209 31.2022 25.8178C29.7873 24.2456 29.6004 23.0799 29.6004 15.1371V8.36001H26.5302C24.6613 8.36001 23.46 8.46845 23.46 8.6311C23.46 8.76664 23.6735 8.90218 23.9405 8.90218C24.2075 8.90218 24.688 9.17327 25.0084 9.52568C25.5691 10.1221 25.5958 10.366 25.5958 16.113C25.5958 22.7546 25.836 24.1371 27.1442 25.6281C28.5592 27.1733 29.9475 27.6883 32.9376 27.8239C34.9933 27.8781 36.0345 27.7968 37.4228 27.3901C38.8644 26.9564 39.2115 26.9293 39.2115 27.2275C39.2115 27.5257 39.8789 27.607 42.3618 27.607C45.1917 27.5799 45.4053 27.5528 44.6845 27.2275C43.937 26.9022 43.2161 25.845 43.2161 25.0859C43.2428 24.8962 44.1505 24.0829 45.2718 23.2697C47.995 21.2907 51.9729 17.2245 54.3223 14.0257C56.4581 11.1251 57.4993 10.1492 59.1813 9.39013C60.5428 8.76664 61.6641 9.01061 62.7854 10.2034C63.9868 11.5046 64.1203 12.2094 64.2538 18.6341C64.3873 26.1974 64.2805 26.7395 62.1714 27.4172C61.9578 27.4986 63.7465 27.5799 66.176 27.5799C70.1539 27.5799 70.501 27.5528 69.7268 27.2004C69.2729 27.0106 68.7657 26.604 68.6055 26.2787C68.4186 25.9534 68.3118 23.5407 68.3118 19.7998C68.3118 13.3209 68.1249 12.0739 66.8434 10.366C65.4552 8.49555 62.3049 7.65519 59.822 8.46845Z" fill="#FF2200"/>
<path d="M125.178 8.33309C123.79 8.76683 122.589 9.55297 121.254 10.8813L119.839 12.2638V10.312V8.3602H116.608C114.553 8.3602 113.458 8.46863 113.565 8.63128C113.645 8.76683 113.912 8.90237 114.125 8.90237C114.339 8.90237 114.739 9.14634 115.033 9.44454C115.54 9.9596 115.567 10.3391 115.567 18.065C115.567 26.9295 115.62 26.6313 113.965 27.309C113.485 27.4988 114.553 27.5801 117.703 27.553C120.132 27.553 121.868 27.4988 121.574 27.4174C121.28 27.3361 120.773 27.0379 120.453 26.7126C119.839 26.1704 119.839 26.062 119.839 19.6373V13.1313L121.681 11.315C123.95 9.03791 125.151 8.57707 126.7 9.36321C127.447 9.74273 127.928 10.2849 128.462 11.3421L129.183 12.806V19.2578C129.183 23.3783 129.076 25.9536 128.889 26.2789C128.729 26.6042 128.222 27.0108 127.768 27.2006C126.994 27.553 127.341 27.5801 131.319 27.5801C134.576 27.553 135.483 27.4988 134.843 27.309C133.348 26.8753 133.187 26.062 133.187 19.2578C133.187 12.5078 133.001 11.6132 131.372 9.90538C129.93 8.41442 127.207 7.7096 125.178 8.33309Z" fill="#FF2200"/>
<path d="M37.0762 8.63104C37.0762 8.76658 37.2898 8.90213 37.5567 8.90213C37.8504 8.90213 38.2776 9.1461 38.5712 9.4714C39.0251 9.98646 39.0785 10.6371 39.212 16.5467C39.3188 22.131 39.3989 23.1069 39.7726 23.3509C40.2799 23.6762 41.1876 23.4594 42.3623 22.7274L43.2166 22.1853V15.2726V8.35996H40.1464C38.2776 8.35996 37.0762 8.46839 37.0762 8.63104Z" fill="#FF2200"/>
<path d="M53.4947 17.5228C53.3345 17.6313 52.6404 18.3903 51.9462 19.2307L50.6915 20.7488V23.1072C50.6915 25.9265 50.291 26.9295 49.0095 27.309C48.3955 27.4988 49.3833 27.553 52.5603 27.5801C56.5115 27.5801 56.8853 27.553 56.1378 27.2277C55.6572 27.0108 55.1766 26.6855 55.0699 26.4686C54.9364 26.2789 54.7762 24.1644 54.6961 21.7789C54.5893 18.2006 54.4825 17.4415 54.1621 17.3873C53.9486 17.3331 53.6282 17.3873 53.4947 17.5228Z" fill="#FF2200"/>
</svg>
